<svg xmlns="http://www.w3.org/2000/svg" xmlns:xlink="http://www.w3.org/1999/xlink" width="500" zoomAndPan="magnify" viewBox="0 0 375 374.999991" height="500" preserveAspectRatio="xMidYMid meet" version="1.0"><defs><g/><clipPath id="68fbef824e"><path d="M 67 152 L 90 152 L 90 208 L 67 208 Z M 67 152 " clip-rule="nonzero"/></clipPath><clipPath id="28d960ad78"><path d="M 33.46875 191.28125 L 100.191406 137.820312 L 165.84375 219.761719 L 99.121094 273.222656 Z M 33.46875 191.28125 " clip-rule="nonzero"/></clipPath><clipPath id="1b2e4fd248"><path d="M 33.46875 191.28125 L 100.191406 137.820312 L 165.84375 219.761719 L 99.121094 273.222656 Z M 33.46875 191.28125 " clip-rule="nonzero"/></clipPath><clipPath id="446a4c24cc"><path d="M 81.976562 152.460938 C 90.960938 158.636719 73.375 191.429688 67.625 202.8125 L 68.476562 203.765625 C 69.953125 205.417969 71.8125 206.453125 73.96875 207.035156 C 91.988281 173.269531 94.453125 158.460938 81.976562 152.460938 Z M 81.976562 152.460938 " clip-rule="nonzero"/></clipPath><linearGradient x1="44.949088" gradientTransform="matrix(0.0757471, -0.0606902, 0.0606902, 0.0757471, 43.202148, 183.530656)" y1="193.59" x2="612.200859" gradientUnits="userSpaceOnUse" y2="193.59" id="f21b793813"><stop stop-opacity="1" stop-color="rgb(79.998779%, 79.998779%, 79.998779%)" offset="0"/><stop stop-opacity="1" stop-color="rgb(79.998779%, 79.998779%, 79.998779%)" offset="0.03125"/><stop stop-opacity="1" stop-color="rgb(79.998779%, 79.998779%, 79.998779%)" offset="0.046875"/><stop stop-opacity="1" stop-color="rgb(79.830933%, 79.830933%, 79.830933%)" offset="0.0546875"/><stop stop-opacity="1" stop-color="rgb(79.467773%, 79.467773%, 79.467773%)" offset="0.0625"/><stop stop-opacity="1" stop-color="rgb(79.078674%, 79.078674%, 79.078674%)" offset="0.0703125"/><stop stop-opacity="1" stop-color="rgb(78.689575%, 78.689575%, 78.689575%)" offset="0.078125"/><stop stop-opacity="1" stop-color="rgb(78.300476%, 78.300476%, 78.300476%)" offset="0.0859375"/><stop stop-opacity="1" stop-color="rgb(77.911377%, 77.911377%, 77.911377%)" offset="0.09375"/><stop stop-opacity="1" stop-color="rgb(77.522278%, 77.522278%, 77.522278%)" offset="0.101563"/><stop stop-opacity="1" stop-color="rgb(77.133179%, 77.133179%, 77.133179%)" offset="0.109375"/><stop stop-opacity="1" stop-color="rgb(76.742554%, 76.742554%, 76.742554%)" offset="0.117188"/><stop stop-opacity="1" stop-color="rgb(76.353455%, 76.353455%, 76.353455%)" offset="0.125"/><stop stop-opacity="1" stop-color="rgb(75.964355%, 75.964355%, 75.964355%)" offset="0.132813"/><stop stop-opacity="1" stop-color="rgb(75.575256%, 75.575256%, 75.575256%)" offset="0.140625"/><stop stop-opacity="1" stop-color="rgb(75.186157%, 75.186157%, 75.186157%)" offset="0.148438"/><stop stop-opacity="1" stop-color="rgb(74.797058%, 74.797058%, 74.797058%)" offset="0.15625"/><stop stop-opacity="1" stop-color="rgb(74.407959%, 74.407959%, 74.407959%)" offset="0.164063"/><stop stop-opacity="1" stop-color="rgb(74.01886%, 74.01886%, 74.01886%)" offset="0.171875"/><stop stop-opacity="1" stop-color="rgb(73.629761%, 73.629761%, 73.629761%)" offset="0.179688"/><stop stop-opacity="1" stop-color="rgb(73.240662%, 73.240662%, 73.240662%)" offset="0.1875"/><stop stop-opacity="1" stop-color="rgb(72.851562%, 72.851562%, 72.851562%)" offset="0.195313"/><stop stop-opacity="1" stop-color="rgb(72.462463%, 72.462463%, 72.462463%)" offset="0.203125"/><stop stop-opacity="1" stop-color="rgb(72.073364%, 72.073364%, 72.073364%)" offset="0.210938"/><stop stop-opacity="1" stop-color="rgb(71.684265%, 71.684265%, 71.684265%)" offset="0.21875"/><stop stop-opacity="1" stop-color="rgb(71.295166%, 71.295166%, 71.295166%)" offset="0.226563"/><stop stop-opacity="1" stop-color="rgb(70.906067%, 70.906067%, 70.906067%)" offset="0.234375"/><stop stop-opacity="1" stop-color="rgb(70.516968%, 70.516968%, 70.516968%)" offset="0.242188"/><stop stop-opacity="1" stop-color="rgb(70.127869%, 70.127869%, 70.127869%)" offset="0.25"/><stop stop-opacity="1" stop-color="rgb(69.73877%, 69.73877%, 69.73877%)" offset="0.257813"/><stop stop-opacity="1" stop-color="rgb(69.34967%, 69.34967%, 69.34967%)" offset="0.265625"/><stop stop-opacity="1" stop-color="rgb(68.960571%, 68.960571%, 68.960571%)" offset="0.273438"/><stop stop-opacity="1" stop-color="rgb(68.571472%, 68.571472%, 68.571472%)" offset="0.28125"/><stop stop-opacity="1" stop-color="rgb(68.182373%, 68.182373%, 68.182373%)" offset="0.289063"/><stop stop-opacity="1" stop-color="rgb(67.793274%, 67.793274%, 67.793274%)" offset="0.296875"/><stop stop-opacity="1" stop-color="rgb(67.404175%, 67.404175%, 67.404175%)" offset="0.304688"/><stop stop-opacity="1" stop-color="rgb(67.015076%, 67.015076%, 67.015076%)" offset="0.3125"/><stop stop-opacity="1" stop-color="rgb(66.625977%, 66.625977%, 66.625977%)" offset="0.320313"/><stop stop-opacity="1" stop-color="rgb(66.236877%, 66.236877%, 66.236877%)" offset="0.328125"/><stop stop-opacity="1" stop-color="rgb(65.847778%, 65.847778%, 65.847778%)" offset="0.335938"/><stop stop-opacity="1" stop-color="rgb(65.458679%, 65.458679%, 65.458679%)" offset="0.34375"/><stop stop-opacity="1" stop-color="rgb(65.06958%, 65.06958%, 65.06958%)" offset="0.351563"/><stop stop-opacity="1" stop-color="rgb(64.680481%, 64.680481%, 64.680481%)" offset="0.359375"/><stop stop-opacity="1" stop-color="rgb(64.291382%, 64.291382%, 64.291382%)" offset="0.367188"/><stop stop-opacity="1" stop-color="rgb(63.902283%, 63.902283%, 63.902283%)" offset="0.375"/><stop stop-opacity="1" stop-color="rgb(63.513184%, 63.513184%, 63.513184%)" offset="0.382813"/><stop stop-opacity="1" stop-color="rgb(63.124084%, 63.124084%, 63.124084%)" offset="0.390625"/><stop stop-opacity="1" stop-color="rgb(62.734985%, 62.734985%, 62.734985%)" offset="0.398438"/><stop stop-opacity="1" stop-color="rgb(62.345886%, 62.345886%, 62.345886%)" offset="0.40625"/><stop stop-opacity="1" stop-color="rgb(61.956787%, 61.956787%, 61.956787%)" offset="0.414063"/><stop stop-opacity="1" stop-color="rgb(61.567688%, 61.567688%, 61.567688%)" offset="0.421875"/><stop stop-opacity="1" stop-color="rgb(61.178589%, 61.178589%, 61.178589%)" offset="0.429688"/><stop stop-opacity="1" stop-color="rgb(60.78949%, 60.78949%, 60.78949%)" offset="0.4375"/><stop stop-opacity="1" stop-color="rgb(60.400391%, 60.400391%, 60.400391%)" offset="0.445313"/><stop stop-opacity="1" stop-color="rgb(60.011292%, 60.011292%, 60.011292%)" offset="0.453125"/><stop stop-opacity="1" stop-color="rgb(59.622192%, 59.622192%, 59.622192%)" offset="0.460938"/><stop stop-opacity="1" stop-color="rgb(59.233093%, 59.233093%, 59.233093%)" offset="0.46875"/><stop stop-opacity="1" stop-color="rgb(58.843994%, 58.843994%, 58.843994%)" offset="0.476563"/><stop stop-opacity="1" stop-color="rgb(58.454895%, 58.454895%, 58.454895%)" offset="0.484375"/><stop stop-opacity="1" stop-color="rgb(58.065796%, 58.065796%, 58.065796%)" offset="0.492188"/><stop stop-opacity="1" stop-color="rgb(57.676697%, 57.676697%, 57.676697%)" offset="0.5"/><stop stop-opacity="1" stop-color="rgb(57.286072%, 57.286072%, 57.286072%)" offset="0.507813"/><stop stop-opacity="1" stop-color="rgb(56.896973%, 56.896973%, 56.896973%)" offset="0.515625"/><stop stop-opacity="1" stop-color="rgb(56.507874%, 56.507874%, 56.507874%)" offset="0.523438"/><stop stop-opacity="1" stop-color="rgb(56.118774%, 56.118774%, 56.118774%)" offset="0.53125"/><stop stop-opacity="1" stop-color="rgb(55.729675%, 55.729675%, 55.729675%)" offset="0.539063"/><stop stop-opacity="1" stop-color="rgb(55.340576%, 55.340576%, 55.340576%)" offset="0.546875"/><stop stop-opacity="1" stop-color="rgb(54.951477%, 54.951477%, 54.951477%)" offset="0.554688"/><stop stop-opacity="1" stop-color="rgb(54.562378%, 54.562378%, 54.562378%)" offset="0.5625"/><stop stop-opacity="1" stop-color="rgb(54.173279%, 54.173279%, 54.173279%)" offset="0.570313"/><stop stop-opacity="1" stop-color="rgb(53.78418%, 53.78418%, 53.78418%)" offset="0.578125"/><stop stop-opacity="1" stop-color="rgb(53.395081%, 53.395081%, 53.395081%)" offset="0.585938"/><stop stop-opacity="1" stop-color="rgb(53.005981%, 53.005981%, 53.005981%)" offset="0.59375"/><stop stop-opacity="1" stop-color="rgb(52.616882%, 52.616882%, 52.616882%)" offset="0.601563"/><stop stop-opacity="1" stop-color="rgb(52.227783%, 52.227783%, 52.227783%)" offset="0.609375"/><stop stop-opacity="1" stop-color="rgb(51.838684%, 51.838684%, 51.838684%)" offset="0.617188"/><stop stop-opacity="1" stop-color="rgb(51.449585%, 51.449585%, 51.449585%)" offset="0.625"/><stop stop-opacity="1" stop-color="rgb(51.060486%, 51.060486%, 51.060486%)" offset="0.632813"/><stop stop-opacity="1" stop-color="rgb(50.671387%, 50.671387%, 50.671387%)" offset="0.640625"/><stop stop-opacity="1" stop-color="rgb(50.282288%, 50.282288%, 50.282288%)" offset="0.648438"/><stop stop-opacity="1" stop-color="rgb(49.893188%, 49.893188%, 49.893188%)" offset="0.65625"/><stop stop-opacity="1" stop-color="rgb(49.504089%, 49.504089%, 49.504089%)" offset="0.664063"/><stop stop-opacity="1" stop-color="rgb(49.11499%, 49.11499%, 49.11499%)" offset="0.671875"/><stop stop-opacity="1" stop-color="rgb(48.725891%, 48.725891%, 48.725891%)" offset="0.679688"/><stop stop-opacity="1" stop-color="rgb(48.336792%, 48.336792%, 48.336792%)" offset="0.6875"/><stop stop-opacity="1" stop-color="rgb(47.947693%, 47.947693%, 47.947693%)" offset="0.695313"/><stop stop-opacity="1" stop-color="rgb(47.558594%, 47.558594%, 47.558594%)" offset="0.703125"/><stop stop-opacity="1" stop-color="rgb(47.169495%, 47.169495%, 47.169495%)" offset="0.710938"/><stop stop-opacity="1" stop-color="rgb(46.780396%, 46.780396%, 46.780396%)" offset="0.71875"/><stop stop-opacity="1" stop-color="rgb(46.391296%, 46.391296%, 46.391296%)" offset="0.726563"/><stop stop-opacity="1" stop-color="rgb(46.002197%, 46.002197%, 46.002197%)" offset="0.734375"/><stop stop-opacity="1" stop-color="rgb(45.613098%, 45.613098%, 45.613098%)" offset="0.742188"/><stop stop-opacity="1" stop-color="rgb(45.223999%, 45.223999%, 45.223999%)" offset="0.75"/><stop stop-opacity="1" stop-color="rgb(44.8349%, 44.8349%, 44.8349%)" offset="0.757813"/><stop stop-opacity="1" stop-color="rgb(44.445801%, 44.445801%, 44.445801%)" offset="0.765625"/><stop stop-opacity="1" stop-color="rgb(44.056702%, 44.056702%, 44.056702%)" offset="0.773438"/><stop stop-opacity="1" stop-color="rgb(43.667603%, 43.667603%, 43.667603%)" offset="0.78125"/><stop stop-opacity="1" stop-color="rgb(43.278503%, 43.278503%, 43.278503%)" offset="0.789063"/><stop stop-opacity="1" stop-color="rgb(42.889404%, 42.889404%, 42.889404%)" offset="0.796875"/><stop stop-opacity="1" stop-color="rgb(42.500305%, 42.500305%, 42.500305%)" offset="0.804688"/><stop stop-opacity="1" stop-color="rgb(42.111206%, 42.111206%, 42.111206%)" offset="0.8125"/><stop stop-opacity="1" stop-color="rgb(41.722107%, 41.722107%, 41.722107%)" offset="0.820312"/><stop stop-opacity="1" stop-color="rgb(41.333008%, 41.333008%, 41.333008%)" offset="0.828125"/><stop stop-opacity="1" stop-color="rgb(40.943909%, 40.943909%, 40.943909%)" offset="0.835937"/><stop stop-opacity="1" stop-color="rgb(40.55481%, 40.55481%, 40.55481%)" offset="0.84375"/><stop stop-opacity="1" stop-color="rgb(40.179443%, 40.179443%, 40.179443%)" offset="0.875"/><stop stop-opacity="1" stop-color="rgb(39.99939%, 39.99939%, 39.99939%)" offset="1"/></linearGradient><clipPath id="a928296a54"><path d="M 75 156 L 98 156 L 98 208 L 75 208 Z M 75 156 " clip-rule="nonzero"/></clipPath><clipPath id="5a16eda93e"><path d="M 33.46875 191.28125 L 100.191406 137.820312 L 165.84375 219.761719 L 99.121094 273.222656 Z M 33.46875 191.28125 " clip-rule="nonzero"/></clipPath><clipPath id="0f95991430"><path d="M 33.46875 191.28125 L 100.191406 137.820312 L 165.84375 219.761719 L 99.121094 273.222656 Z M 33.46875 191.28125 " clip-rule="nonzero"/></clipPath><clipPath id="0cdc526656"><path d="M 89.941406 157.753906 C 95.707031 168.664062 84.03125 192.433594 75.6875 207.460938 L 75.683594 207.464844 C 78.347656 207.65625 81.335938 207.378906 84.542969 206.828125 C 100.847656 175.609375 101.085938 162.246094 89.191406 156.398438 C 89.46875 156.839844 89.71875 157.292969 89.941406 157.753906 Z M 89.941406 157.753906 " clip-rule="evenodd"/></clipPath><linearGradient x1="105.737828" gradientTransform="matrix(0.0757471, -0.0606902, 0.0606902, 0.0757471, 43.202148, 183.530656)" y1="265.883" x2="640.1781" gradientUnits="userSpaceOnUse" y2="265.883" id="b84c4d3a8d"><stop stop-opacity="1" stop-color="rgb(79.998779%, 79.998779%, 79.998779%)" offset="0"/><stop stop-opacity="1" stop-color="rgb(79.86908%, 79.86908%, 79.86908%)" offset="0.0078125"/><stop stop-opacity="1" stop-color="rgb(79.556274%, 79.556274%, 79.556274%)" offset="0.015625"/><stop stop-opacity="1" stop-color="rgb(79.188538%, 79.188538%, 79.188538%)" offset="0.0234375"/><stop stop-opacity="1" stop-color="rgb(78.820801%, 78.820801%, 78.820801%)" offset="0.03125"/><stop stop-opacity="1" stop-color="rgb(78.453064%, 78.453064%, 78.453064%)" offset="0.0390625"/><stop stop-opacity="1" stop-color="rgb(78.085327%, 78.085327%, 78.085327%)" offset="0.046875"/><stop stop-opacity="1" stop-color="rgb(77.71759%, 77.71759%, 77.71759%)" offset="0.0546875"/><stop stop-opacity="1" stop-color="rgb(77.349854%, 77.349854%, 77.349854%)" offset="0.0625"/><stop stop-opacity="1" stop-color="rgb(76.982117%, 76.982117%, 76.982117%)" offset="0.0703125"/><stop stop-opacity="1" stop-color="rgb(76.61438%, 76.61438%, 76.61438%)" offset="0.078125"/><stop stop-opacity="1" stop-color="rgb(76.246643%, 76.246643%, 76.246643%)" offset="0.0859375"/><stop stop-opacity="1" stop-color="rgb(75.878906%, 75.878906%, 75.878906%)" offset="0.09375"/><stop stop-opacity="1" stop-color="rgb(75.511169%, 75.511169%, 75.511169%)" offset="0.101562"/><stop stop-opacity="1" stop-color="rgb(75.143433%, 75.143433%, 75.143433%)" offset="0.109375"/><stop stop-opacity="1" stop-color="rgb(74.775696%, 74.775696%, 74.775696%)" offset="0.117187"/><stop stop-opacity="1" stop-color="rgb(74.407959%, 74.407959%, 74.407959%)" offset="0.125"/><stop stop-opacity="1" stop-color="rgb(74.040222%, 74.040222%, 74.040222%)" offset="0.132812"/><stop stop-opacity="1" stop-color="rgb(73.672485%, 73.672485%, 73.672485%)" offset="0.140625"/><stop stop-opacity="1" stop-color="rgb(73.304749%, 73.304749%, 73.304749%)" offset="0.148437"/><stop stop-opacity="1" stop-color="rgb(72.937012%, 72.937012%, 72.937012%)" offset="0.15625"/><stop stop-opacity="1" stop-color="rgb(72.569275%, 72.569275%, 72.569275%)" offset="0.164062"/><stop stop-opacity="1" stop-color="rgb(72.201538%, 72.201538%, 72.201538%)" offset="0.171875"/><stop stop-opacity="1" stop-color="rgb(71.833801%, 71.833801%, 71.833801%)" offset="0.179687"/><stop stop-opacity="1" stop-color="rgb(71.466064%, 71.466064%, 71.466064%)" offset="0.1875"/><stop stop-opacity="1" stop-color="rgb(71.098328%, 71.098328%, 71.098328%)" offset="0.195312"/><stop stop-opacity="1" stop-color="rgb(70.730591%, 70.730591%, 70.730591%)" offset="0.203125"/><stop stop-opacity="1" stop-color="rgb(70.362854%, 70.362854%, 70.362854%)" offset="0.210937"/><stop stop-opacity="1" stop-color="rgb(69.995117%, 69.995117%, 69.995117%)" offset="0.21875"/><stop stop-opacity="1" stop-color="rgb(69.62738%, 69.62738%, 69.62738%)" offset="0.226562"/><stop stop-opacity="1" stop-color="rgb(69.259644%, 69.259644%, 69.259644%)" offset="0.234375"/><stop stop-opacity="1" stop-color="rgb(68.891907%, 68.891907%, 68.891907%)" offset="0.242188"/><stop stop-opacity="1" stop-color="rgb(68.522644%, 68.522644%, 68.522644%)" offset="0.25"/><stop stop-opacity="1" stop-color="rgb(68.154907%, 68.154907%, 68.154907%)" offset="0.257812"/><stop stop-opacity="1" stop-color="rgb(67.78717%, 67.78717%, 67.78717%)" offset="0.265625"/><stop stop-opacity="1" stop-color="rgb(67.419434%, 67.419434%, 67.419434%)" offset="0.273438"/><stop stop-opacity="1" stop-color="rgb(67.051697%, 67.051697%, 67.051697%)" offset="0.28125"/><stop stop-opacity="1" stop-color="rgb(66.68396%, 66.68396%, 66.68396%)" offset="0.289062"/><stop stop-opacity="1" stop-color="rgb(66.316223%, 66.316223%, 66.316223%)" offset="0.296875"/><stop stop-opacity="1" stop-color="rgb(65.948486%, 65.948486%, 65.948486%)" offset="0.304687"/><stop stop-opacity="1" stop-color="rgb(65.58075%, 65.58075%, 65.58075%)" offset="0.3125"/><stop stop-opacity="1" stop-color="rgb(65.213013%, 65.213013%, 65.213013%)" offset="0.320313"/><stop stop-opacity="1" stop-color="rgb(64.845276%, 64.845276%, 64.845276%)" offset="0.328125"/><stop stop-opacity="1" stop-color="rgb(64.477539%, 64.477539%, 64.477539%)" offset="0.335938"/><stop stop-opacity="1" stop-color="rgb(64.109802%, 64.109802%, 64.109802%)" offset="0.34375"/><stop stop-opacity="1" stop-color="rgb(63.742065%, 63.742065%, 63.742065%)" offset="0.351562"/><stop stop-opacity="1" stop-color="rgb(63.374329%, 63.374329%, 63.374329%)" offset="0.359375"/><stop stop-opacity="1" stop-color="rgb(63.006592%, 63.006592%, 63.006592%)" offset="0.367188"/><stop stop-opacity="1" stop-color="rgb(62.638855%, 62.638855%, 62.638855%)" offset="0.375"/><stop stop-opacity="1" stop-color="rgb(62.271118%, 62.271118%, 62.271118%)" offset="0.382812"/><stop stop-opacity="1" stop-color="rgb(61.903381%, 61.903381%, 61.903381%)" offset="0.390625"/><stop stop-opacity="1" stop-color="rgb(61.535645%, 61.535645%, 61.535645%)" offset="0.398437"/><stop stop-opacity="1" stop-color="rgb(61.167908%, 61.167908%, 61.167908%)" offset="0.40625"/><stop stop-opacity="1" stop-color="rgb(60.800171%, 60.800171%, 60.800171%)" offset="0.414062"/><stop stop-opacity="1" stop-color="rgb(60.432434%, 60.432434%, 60.432434%)" offset="0.421875"/><stop stop-opacity="1" stop-color="rgb(60.064697%, 60.064697%, 60.064697%)" offset="0.429687"/><stop stop-opacity="1" stop-color="rgb(59.69696%, 59.69696%, 59.69696%)" offset="0.4375"/><stop stop-opacity="1" stop-color="rgb(59.329224%, 59.329224%, 59.329224%)" offset="0.445312"/><stop stop-opacity="1" stop-color="rgb(58.961487%, 58.961487%, 58.961487%)" offset="0.453125"/><stop stop-opacity="1" stop-color="rgb(58.59375%, 58.59375%, 58.59375%)" offset="0.460937"/><stop stop-opacity="1" stop-color="rgb(58.226013%, 58.226013%, 58.226013%)" offset="0.46875"/><stop stop-opacity="1" stop-color="rgb(57.858276%, 57.858276%, 57.858276%)" offset="0.476563"/><stop stop-opacity="1" stop-color="rgb(57.49054%, 57.49054%, 57.49054%)" offset="0.484375"/><stop stop-opacity="1" stop-color="rgb(57.122803%, 57.122803%, 57.122803%)" offset="0.492188"/><stop stop-opacity="1" stop-color="rgb(56.755066%, 56.755066%, 56.755066%)" offset="0.5"/><stop stop-opacity="1" stop-color="rgb(56.387329%, 56.387329%, 56.387329%)" offset="0.507812"/><stop stop-opacity="1" stop-color="rgb(56.019592%, 56.019592%, 56.019592%)" offset="0.515625"/><stop stop-opacity="1" stop-color="rgb(55.651855%, 55.651855%, 55.651855%)" offset="0.523438"/><stop stop-opacity="1" stop-color="rgb(55.284119%, 55.284119%, 55.284119%)" offset="0.53125"/><stop stop-opacity="1" stop-color="rgb(54.916382%, 54.916382%, 54.916382%)" offset="0.539063"/><stop stop-opacity="1" stop-color="rgb(54.548645%, 54.548645%, 54.548645%)" offset="0.546875"/><stop stop-opacity="1" stop-color="rgb(54.180908%, 54.180908%, 54.180908%)" offset="0.554688"/><stop stop-opacity="1" stop-color="rgb(53.813171%, 53.813171%, 53.813171%)" offset="0.5625"/><stop stop-opacity="1" stop-color="rgb(53.445435%, 53.445435%, 53.445435%)" offset="0.570312"/><stop stop-opacity="1" stop-color="rgb(53.077698%, 53.077698%, 53.077698%)" offset="0.578125"/><stop stop-opacity="1" stop-color="rgb(52.709961%, 52.709961%, 52.709961%)" offset="0.585938"/><stop stop-opacity="1" stop-color="rgb(52.342224%, 52.342224%, 52.342224%)" offset="0.59375"/><stop stop-opacity="1" stop-color="rgb(51.974487%, 51.974487%, 51.974487%)" offset="0.601562"/><stop stop-opacity="1" stop-color="rgb(51.60675%, 51.60675%, 51.60675%)" offset="0.609375"/><stop stop-opacity="1" stop-color="rgb(51.239014%, 51.239014%, 51.239014%)" offset="0.617187"/><stop stop-opacity="1" stop-color="rgb(50.871277%, 50.871277%, 50.871277%)" offset="0.625"/><stop stop-opacity="1" stop-color="rgb(50.50354%, 50.50354%, 50.50354%)" offset="0.632813"/><stop stop-opacity="1" stop-color="rgb(50.135803%, 50.135803%, 50.135803%)" offset="0.640625"/><stop stop-opacity="1" stop-color="rgb(49.768066%, 49.768066%, 49.768066%)" offset="0.648438"/><stop stop-opacity="1" stop-color="rgb(49.40033%, 49.40033%, 49.40033%)" offset="0.65625"/><stop stop-opacity="1" stop-color="rgb(49.032593%, 49.032593%, 49.032593%)" offset="0.664062"/><stop stop-opacity="1" stop-color="rgb(48.664856%, 48.664856%, 48.664856%)" offset="0.671875"/><stop stop-opacity="1" stop-color="rgb(48.297119%, 48.297119%, 48.297119%)" offset="0.679688"/><stop stop-opacity="1" stop-color="rgb(47.929382%, 47.929382%, 47.929382%)" offset="0.6875"/><stop stop-opacity="1" stop-color="rgb(47.561646%, 47.561646%, 47.561646%)" offset="0.695312"/><stop stop-opacity="1" stop-color="rgb(47.193909%, 47.193909%, 47.193909%)" offset="0.703125"/><stop stop-opacity="1" stop-color="rgb(46.826172%, 46.826172%, 46.826172%)" offset="0.710937"/><stop stop-opacity="1" stop-color="rgb(46.456909%, 46.456909%, 46.456909%)" offset="0.71875"/><stop stop-opacity="1" stop-color="rgb(46.089172%, 46.089172%, 46.089172%)" offset="0.726562"/><stop stop-opacity="1" stop-color="rgb(45.721436%, 45.721436%, 45.721436%)" offset="0.734375"/><stop stop-opacity="1" stop-color="rgb(45.353699%, 45.353699%, 45.353699%)" offset="0.742188"/><stop stop-opacity="1" stop-color="rgb(44.985962%, 44.985962%, 44.985962%)" offset="0.75"/><stop stop-opacity="1" stop-color="rgb(44.618225%, 44.618225%, 44.618225%)" offset="0.757812"/><stop stop-opacity="1" stop-color="rgb(44.250488%, 44.250488%, 44.250488%)" offset="0.765625"/><stop stop-opacity="1" stop-color="rgb(43.882751%, 43.882751%, 43.882751%)" offset="0.773438"/><stop stop-opacity="1" stop-color="rgb(43.515015%, 43.515015%, 43.515015%)" offset="0.78125"/><stop stop-opacity="1" stop-color="rgb(43.147278%, 43.147278%, 43.147278%)" offset="0.789062"/><stop stop-opacity="1" stop-color="rgb(42.779541%, 42.779541%, 42.779541%)" offset="0.796875"/><stop stop-opacity="1" stop-color="rgb(42.411804%, 42.411804%, 42.411804%)" offset="0.804687"/><stop stop-opacity="1" stop-color="rgb(42.044067%, 42.044067%, 42.044067%)" offset="0.8125"/><stop stop-opacity="1" stop-color="rgb(41.676331%, 41.676331%, 41.676331%)" offset="0.820312"/><stop stop-opacity="1" stop-color="rgb(41.308594%, 41.308594%, 41.308594%)" offset="0.828125"/><stop stop-opacity="1" stop-color="rgb(40.940857%, 40.940857%, 40.940857%)" offset="0.835938"/><stop stop-opacity="1" stop-color="rgb(40.57312%, 40.57312%, 40.57312%)" offset="0.84375"/><stop stop-opacity="1" stop-color="rgb(40.194702%, 40.194702%, 40.194702%)" offset="0.875"/><stop stop-opacity="1" stop-color="rgb(39.99939%, 39.99939%, 39.99939%)" offset="1"/></linearGradient><clipPath id="c3b966b99c"><path d="M 67 201 L 150 201 L 150 220 L 67 220 Z M 67 201 " clip-rule="nonzero"/></clipPath><clipPath id="6aadbc193a"><path d="M 33.46875 191.28125 L 100.191406 137.820312 L 165.84375 219.761719 L 99.121094 273.222656 Z M 33.46875 191.28125 " clip-rule="nonzero"/></clipPath><clipPath id="409e7ca385"><path d="M 33.46875 191.28125 L 100.191406 137.820312 L 165.84375 219.761719 L 99.121094 273.222656 Z M 33.46875 191.28125 " clip-rule="nonzero"/></clipPath><clipPath id="e8ad10d094"><path d="M 105.980469 212.871094 C 84.652344 218.964844 69.777344 218.335938 67.195312 204.910156 C 83.070312 222.667969 133.203125 178.644531 149.398438 219.167969 C 136.375 205.847656 120.800781 209.898438 105.980469 212.871094 Z M 105.980469 212.871094 " clip-rule="evenodd"/></clipPath><clipPath id="09e08931ff"><path d="M 69 211 L 153 211 L 153 231 L 69 231 Z M 69 211 " clip-rule="nonzero"/></clipPath><clipPath id="c92dcc549b"><path d="M 33.46875 191.28125 L 100.191406 137.820312 L 165.84375 219.761719 L 99.121094 273.222656 Z M 33.46875 191.28125 " clip-rule="nonzero"/></clipPath><clipPath id="8775b452dd"><path d="M 33.46875 191.28125 L 100.191406 137.820312 L 165.84375 219.761719 L 99.121094 273.222656 Z M 33.46875 191.28125 " clip-rule="nonzero"/></clipPath><clipPath id="1bbecc7917"><path d="M 69.8125 213.34375 C 88.503906 231.953125 138.722656 189.179688 152.394531 230.074219 C 126.867188 203.964844 75.71875 244.015625 69.8125 213.34375 Z M 69.8125 213.34375 " clip-rule="evenodd"/></clipPath></defs><g fill="#ff914d" fill-opacity="1"><g transform="translate(95.731126, 196.087576)"><g><path d="M 22.40625 -0.03125 C 23.6875 -0.03125 24.8125 -0.84375 25.09375 -2.0625 L 27.21875 -11 L 32.3125 -11 C 33.90625 -11 34.90625 -12.25 34.90625 -13.90625 C 34.90625 -15.5 33.875 -16.59375 32.28125 -16.59375 L 28.5625 -16.59375 L 30.625 -25.1875 L 35.3125 -25.1875 C 36.0625 -25.1875 36.71875 -25.53125 37.1875 -26.03125 C 37.65625 -26.5625 37.875 -27.1875 37.875 -27.96875 C 37.875 -29.6875 36.84375 -30.78125 35.25 -30.78125 L 31.96875 -30.78125 L 33.53125 -37.1875 C 33.625 -37.5 33.65625 -37.8125 33.65625 -38.15625 C 33.65625 -39.8125 32.46875 -41.0625 30.8125 -41.0625 C 29.4375 -41.0625 28.25 -40.09375 27.90625 -38.75 L 26.03125 -30.78125 L 17.34375 -30.78125 L 18.875 -37.1875 C 18.96875 -37.46875 19 -37.78125 19 -38.1875 C 19 -39.8125 17.875 -41.09375 16.25 -41.09375 C 14.875 -41.09375 13.5625 -40.1875 13.28125 -38.96875 L 11.34375 -30.78125 L 6.8125 -30.78125 C 5.3125 -30.78125 4.28125 -29.5625 4.28125 -27.9375 C 4.28125 -26.3125 5.3125 -25.1875 6.8125 -25.1875 L 10.03125 -25.1875 L 8 -16.59375 L 3.5625 -16.59375 C 2.03125 -16.59375 1 -15.34375 1 -13.71875 C 1 -12.09375 1.96875 -11 3.59375 -11 L 6.6875 -11 L 4.875 -3.25 C 4.8125 -3.03125 4.78125 -2.8125 4.78125 -2.59375 C 4.78125 -1.1875 5.90625 -0.125 7.6875 -0.125 C 9.0625 -0.125 10.125 -0.8125 10.46875 -2.0625 L 12.59375 -11 L 21.34375 -11 L 19.5625 -3.4375 C 19.5 -3.1875 19.46875 -2.9375 19.46875 -2.71875 C 19.46875 -1.3125 20.6875 -0.03125 22.40625 -0.03125 Z M 13.9375 -16.59375 L 16 -25.1875 L 24.6875 -25.1875 L 22.65625 -16.59375 Z M 13.9375 -16.59375 "/></g></g></g><g fill="#ffffff" fill-opacity="1"><g transform="translate(132.176436, 196.087576)"><g><path d="M 16.375 0.25 C 17.90625 0.25 19.15625 -0.96875 19.15625 -2.5 L 19.15625 -35.71875 L 29.03125 -35.71875 C 30.5625 -35.71875 31.8125 -36.84375 31.8125 -38.4375 C 31.8125 -39.15625 31.53125 -39.8125 31 -40.40625 C 30.5 -40.90625 29.78125 -41.21875 29.03125 -41.21875 L 3.96875 -41.21875 C 2.4375 -41.21875 1.21875 -40 1.21875 -38.46875 C 1.21875 -36.9375 2.4375 -35.71875 3.96875 -35.71875 L 13.71875 -35.71875 L 13.71875 -2.5 C 13.71875 -0.96875 14.875 0.25 16.375 0.25 Z M 16.375 0.25 "/></g></g></g><g fill="#ffffff" fill-opacity="1"><g transform="translate(162.458187, 196.087576)"><g><path d="M 5.625 0 C 7.125 0 8.28125 -1.15625 8.28125 -2.75 L 8.28125 -14.1875 C 8.28125 -17.03125 9.40625 -19.625 11.375 -21.59375 C 13.28125 -23.5 15.875 -24.65625 18.65625 -24.65625 L 18.8125 -24.65625 C 20.4375 -24.65625 21.6875 -25.8125 21.6875 -27.40625 C 21.6875 -29.03125 20.65625 -30.15625 18.8125 -30.15625 L 18.65625 -30.15625 C 14.375 -30.15625 10.40625 -28.4375 7.4375 -25.46875 C 4.53125 -22.5 2.78125 -18.46875 2.78125 -14.1875 L 2.78125 -2.75 C 2.78125 -1.96875 3.0625 -1.3125 3.65625 -0.78125 C 4.1875 -0.25 4.84375 0 5.625 0 Z M 5.625 0 "/></g></g></g><g fill="#ffffff" fill-opacity="1"><g transform="translate(182.271822, 196.087576)"><g><path d="M 16.6875 0.375 C 19.15625 0.375 21.46875 0 23.125 -0.71875 C 24.96875 -1.5 25.875 -2.5 25.875 -3.78125 C 25.875 -4.53125 25.5625 -5.28125 25.0625 -5.8125 C 24.5 -6.375 23.875 -6.65625 23.15625 -6.65625 C 22.625 -6.65625 22.09375 -6.5 21.5 -6.15625 C 20.03125 -5.28125 18.78125 -4.9375 16.6875 -4.9375 C 14.46875 -4.9375 12.40625 -5.6875 10.75 -7.0625 C 9.125 -8.4375 7.96875 -10.25 7.5 -12.375 L 29.3125 -12.375 C 30.90625 -12.375 32 -13.5 32 -15 C 31.96875 -19.09375 30.25 -22.9375 27.46875 -25.71875 C 24.625 -28.5 20.78125 -30.15625 16.6875 -30.15625 C 12.5625 -30.15625 8.65625 -28.46875 5.875 -25.6875 C 3.03125 -22.90625 1.375 -19.03125 1.375 -14.875 C 1.375 -10.75 3.03125 -6.875 5.875 -4.09375 C 8.65625 -1.3125 12.5625 0.375 16.6875 0.375 Z M 7.34375 -17 C 7.71875 -19.15625 8.84375 -21.1875 10.5 -22.59375 C 12.15625 -24.0625 14.375 -24.875 16.78125 -24.875 C 19.15625 -24.875 21.375 -24.03125 23.09375 -22.625 C 24.8125 -21.21875 25.96875 -19.21875 26.34375 -17 Z M 7.34375 -17 "/></g></g></g><g fill="#ffffff" fill-opacity="1"><g transform="translate(213.084786, 196.087576)"><g><path d="M 5 0 C 6.53125 0 7.6875 -1.125 7.6875 -2.71875 L 7.6875 -15.4375 C 7.6875 -17.9375 8.59375 -20.28125 10.21875 -21.9375 C 11.84375 -23.65625 14.03125 -24.59375 16.53125 -24.59375 C 19 -24.59375 21.25 -23.59375 22.90625 -21.875 C 24.53125 -20.21875 25.46875 -17.875 25.5 -15.375 L 25.5 -2.71875 C 25.5 -1.125 26.75 0 28.28125 0 C 29.8125 0 31 -1.125 31 -2.71875 L 31 -15.4375 C 31 -19.4375 29.46875 -23.125 26.84375 -25.84375 C 24.125 -28.5625 20.53125 -30.15625 16.53125 -30.15625 C 12.5625 -30.15625 8.96875 -28.5625 6.3125 -25.84375 C 3.6875 -23.125 2.15625 -19.4375 2.15625 -15.4375 L 2.15625 -2.71875 C 2.15625 -1.9375 2.4375 -1.3125 3.03125 -0.78125 C 3.5625 -0.25 4.21875 0 5 0 Z M 5 0 "/></g></g></g><g fill="#ffffff" fill-opacity="1"><g transform="translate(244.522711, 196.087576)"><g><path d="M 16.625 0.375 C 20.75 0.375 24.59375 -1.28125 27.375 -4.0625 C 30.15625 -6.84375 31.84375 -10.59375 31.875 -14.6875 L 31.875 -38.28125 C 31.875 -39.90625 30.6875 -41.15625 29.09375 -41.15625 C 27.5 -41.15625 26.34375 -39.90625 26.34375 -38.28125 L 26.34375 -24.59375 C 25.40625 -26.375 24.1875 -27.75 22.6875 -28.6875 C 21.09375 -29.65625 19.09375 -30.15625 16.625 -30.15625 C 12.5 -30.15625 8.71875 -28.53125 5.875 -25.6875 C 3.03125 -22.84375 1.375 -19 1.375 -14.875 C 1.375 -10.75 3.03125 -6.875 5.875 -4.09375 C 8.71875 -1.25 12.5 0.375 16.625 0.375 Z M 16.625 -5.15625 C 13.96875 -5.15625 11.53125 -6.1875 9.75 -8.03125 C 7.96875 -9.8125 6.90625 -12.25 6.90625 -14.875 C 6.90625 -17.5 7.96875 -19.9375 9.75 -21.71875 C 11.53125 -23.5 13.96875 -24.5625 16.625 -24.5625 C 19.34375 -24.5625 21.75 -23.5 23.53125 -21.71875 C 25.3125 -19.9375 26.34375 -17.5 26.34375 -14.875 C 26.34375 -12.25 25.3125 -9.8125 23.53125 -8.03125 C 21.75 -6.1875 19.34375 -5.15625 16.625 -5.15625 Z M 16.625 -5.15625 "/></g></g></g><g fill="#ffffff" fill-opacity="1"><g transform="translate(276.616852, 196.087576)"><g><path d="M 27.875 0 C 28.65625 0 29.34375 -0.28125 29.875 -0.8125 C 30.40625 -1.34375 30.6875 -2 30.6875 -2.75 C 30.6875 -4.25 29.46875 -5.375 27.875 -5.375 L 9.96875 -5.375 L 28.90625 -25.1875 C 29.5 -25.71875 29.8125 -26.34375 29.84375 -27.09375 L 29.84375 -27.34375 C 29.8125 -28.09375 29.5 -28.75 28.875 -29.28125 C 28.375 -29.75 27.65625 -30 27.125 -30 L 4.59375 -30 C 3.0625 -30 1.84375 -28.8125 1.84375 -27.28125 C 1.84375 -25.75 3.0625 -24.53125 4.59375 -24.53125 L 21.1875 -24.53125 L 2.21875 -4.65625 C 1.65625 -4.0625 1.375 -3.4375 1.375 -2.75 C 1.375 -2 1.65625 -1.34375 2.1875 -0.8125 C 2.6875 -0.3125 3.40625 0 4.15625 0 Z M 27.875 0 "/></g></g></g><g clip-path="url(#68fbef824e)"><g clip-path="url(#28d960ad78)"><g clip-path="url(#1b2e4fd248)"><g clip-path="url(#446a4c24cc)"><path fill="url(#f21b793813)" d="M 40.996094 173.800781 L 78.113281 220.125 L 121.082031 185.699219 L 83.964844 139.371094 Z M 40.996094 173.800781 " fill-rule="nonzero"/></g></g></g></g><g clip-path="url(#a928296a54)"><g clip-path="url(#5a16eda93e)"><g clip-path="url(#0f95991430)"><g clip-path="url(#0cdc526656)"><path fill="url(#b84c4d3a8d)" d="M 50.671875 176.4375 L 85.613281 220.050781 L 126.097656 187.617188 L 91.152344 144.003906 Z M 50.671875 176.4375 " fill-rule="nonzero"/></g></g></g></g><g clip-path="url(#c3b966b99c)"><g clip-path="url(#6aadbc193a)"><g clip-path="url(#409e7ca385)"><g clip-path="url(#e8ad10d094)"><path fill="#ff8e2b" d="M 45.710938 195.855469 L 99.332031 262.777344 L 170.878906 205.453125 L 117.257812 138.53125 Z M 45.710938 195.855469 " fill-opacity="1" fill-rule="nonzero"/></g></g></g></g><g clip-path="url(#09e08931ff)"><g clip-path="url(#c92dcc549b)"><g clip-path="url(#8775b452dd)"><g clip-path="url(#1bbecc7917)"><path fill="#ff8e2b" d="M 43.058594 210.621094 L 102.101562 284.3125 L 179.152344 222.578125 L 120.109375 148.882812 Z M 43.058594 210.621094 " fill-opacity="1" fill-rule="nonzero"/></g></g></g></g></svg>